<svg width="740" height="246" viewBox="0 0 740 246" fill="none" xmlns="http://www.w3.org/2000/svg">
<path d="M739.45 1.11011H0.879883V244.68H739.45V1.11011Z" stroke="#027DBD" stroke-miterlimit="10"/>
<path d="M260.47 67.4802C260.47 67.4102 260.48 67.3502 260.48 67.2802C260.48 65.7102 259.21 64.4602 257.65 64.4602H151.72C150.16 64.4602 148.9 65.7102 148.9 67.2802V68.1902C148.9 68.3402 148.9 68.5102 148.91 68.6702H148.9C148.9 89.9502 160.8 108.44 178.32 117.85C177.8 118.94 177.5 120.16 177.5 121.45C177.5 126.06 181.23 129.8 185.84 129.8H223.54C228.15 129.8 231.89 126.06 231.89 121.45C231.89 120.16 231.59 118.95 231.07 117.85C248.58 108.44 260.5 89.9502 260.5 68.6702H260.48C260.48 68.5102 260.5 68.3402 260.5 68.1902C260.5 67.9502 260.49 67.7102 260.49 67.4802" fill="#409DCC"/>
<path d="M260.47 67.4802C260.47 67.4102 260.48 67.3502 260.48 67.2802C260.48 65.7102 259.21 64.4602 257.65 64.4602H204.69V129.8H223.54C228.14 129.8 231.88 126.06 231.88 121.45C231.88 120.16 231.58 118.95 231.06 117.85C248.57 108.44 260.49 89.9502 260.49 68.6702H260.47C260.47 68.5102 260.49 68.3402 260.49 68.1902C260.49 67.9502 260.48 67.7102 260.48 67.4802" fill="#027DBD"/>
<path d="M187.96 90.2802C187.96 84.9802 192.27 80.6902 197.55 80.6902C200.38 80.6902 202.92 81.9102 204.68 83.8502C206.44 81.9102 208.97 80.6902 211.8 80.6902C217.1 80.6902 221.4 84.9802 221.4 90.2802C221.4 92.9302 220.32 95.3402 218.58 97.0702L204.67 111.73L190.62 96.9102C188.97 95.1802 187.95 92.8502 187.95 90.2702" fill="#FFE144"/>
<path d="M211.8 80.6902C208.97 80.6902 206.44 81.9102 204.68 83.8502V111.73L218.58 97.0702C220.33 95.3302 221.4 92.9302 221.4 90.2802C221.4 84.9802 217.1 80.6902 211.8 80.6902Z" fill="#F2CD1F"/>
<path d="M93.9899 164.85C92.2699 164.24 90.9799 163.67 90.1499 163.16C89.3499 162.67 88.7799 162.14 88.4499 161.57C88.1199 161.01 87.9599 160.26 87.9599 159.35C87.9599 158.13 88.3899 157.21 89.2799 156.53C90.1899 155.84 91.4799 155.49 93.1199 155.49C95.2499 155.49 97.4699 155.97 99.7299 156.92L100.05 157.05L101.29 153.6L101.01 153.48C98.6499 152.44 96.0199 151.92 93.2099 151.92C90.3999 151.92 88.2499 152.59 86.5799 153.9C84.8799 155.23 84.0299 157.05 84.0299 159.3C84.0299 161.43 84.6199 163.18 85.7899 164.51C86.9399 165.82 88.8599 166.97 91.4999 167.91C93.3399 168.56 94.7199 169.16 95.6099 169.67C96.4699 170.16 97.0899 170.7 97.4499 171.27C97.7999 171.83 97.9799 172.57 97.9799 173.48C97.9799 174.85 97.4799 175.89 96.4599 176.65C95.4199 177.43 93.8399 177.82 91.7599 177.82C90.4599 177.82 89.1299 177.68 87.8099 177.4C86.4899 177.13 85.2399 176.75 84.1199 176.27L83.6699 176.08V179.92L83.8599 180.01C85.6799 180.88 88.3099 181.32 91.6599 181.32C94.7799 181.32 97.2999 180.6 99.1299 179.18C100.99 177.75 101.94 175.72 101.94 173.16C101.94 171.17 101.35 169.52 100.2 168.27C99.0699 167.04 96.9799 165.88 94.0099 164.82" fill="#027DBD"/>
<path d="M116.34 158.99C114.82 158.99 113.44 159.3 112.24 159.9C111.32 160.37 110.55 160.97 109.95 161.7C109.99 161.16 110.01 160.55 110.01 159.88V152.34H106.18V180.98H110.01V169.69C110.01 167.05 110.5 165.14 111.46 164.01C112.4 162.89 113.95 162.32 116.04 162.32C117.59 162.32 118.75 162.71 119.46 163.48C120.17 164.26 120.54 165.47 120.54 167.09V180.99H124.37V166.98C124.37 164.25 123.69 162.21 122.35 160.94C121.01 159.67 118.99 159.02 116.35 159.02" fill="#027DBD"/>
<path d="M137.97 158.99C136.71 158.99 135.44 159.15 134.18 159.48C132.93 159.8 131.76 160.26 130.71 160.83L130.46 160.97L131.67 164L131.99 163.85C134.14 162.81 136.09 162.28 137.78 162.28C139.23 162.28 140.29 162.64 140.93 163.35C141.58 164.07 141.91 165.22 141.91 166.78V167.76L138.67 167.86C131.71 168.07 128.19 170.42 128.19 174.85C128.19 176.92 128.82 178.54 130.07 179.67C131.31 180.79 133.02 181.36 135.18 181.36C136.78 181.36 138.13 181.12 139.21 180.63C140.18 180.19 141.17 179.39 142.15 178.25L142.73 180.98H145.68V166.34C145.68 163.81 145.03 161.93 143.76 160.76C142.5 159.6 140.55 159.01 137.98 159.01M141.84 170.68V172.23C141.84 174.08 141.3 175.53 140.24 176.55C139.18 177.57 137.69 178.09 135.81 178.09C134.65 178.09 133.73 177.81 133.1 177.27C132.47 176.73 132.17 175.95 132.17 174.9C132.17 173.54 132.67 172.57 133.69 171.93C134.75 171.27 136.54 170.89 139 170.8L141.83 170.68H141.84Z" fill="#027DBD"/>
<path d="M159.91 158.95C158.53 158.95 157.25 159.34 156.11 160.12C155.15 160.76 154.3 161.65 153.58 162.76L153.26 159.34H150.01V180.97H153.84V169.39C153.84 167.43 154.42 165.77 155.57 164.46C156.72 163.14 158.06 162.5 159.68 162.5C160.32 162.5 161.06 162.6 161.91 162.78L162.25 162.86L162.79 159.26L162.49 159.2C161.73 159.04 160.86 158.96 159.92 158.96" fill="#027DBD"/>
<path d="M173.81 158.95C170.92 158.95 168.58 159.99 166.85 162.05C165.14 164.09 164.28 166.87 164.28 170.32C164.28 173.77 165.21 176.47 167.06 178.41C168.91 180.36 171.46 181.34 174.64 181.34C176.07 181.34 177.32 181.23 178.33 181.02C179.35 180.81 180.44 180.45 181.58 179.96L181.78 179.88V176.34L181.32 176.53C179.17 177.45 176.96 177.92 174.75 177.92C172.71 177.92 171.11 177.31 170 176.11C168.93 174.96 168.34 173.26 168.23 171.05H182.67V168.72C182.67 165.82 181.87 163.44 180.29 161.66C178.7 159.87 176.52 158.96 173.81 158.96M173.77 162.27C175.34 162.27 176.51 162.75 177.35 163.75C178.14 164.69 178.56 166.06 178.61 167.81H168.34C168.55 166.12 169.1 164.77 169.99 163.8C170.94 162.76 172.18 162.26 173.78 162.26" fill="#027DBD"/>
<path d="M179.99 155.87H188.85V180.96H192.76V155.87H201.62V152.33H179.99V155.87Z" fill="#027DBD"/>
<path d="M214.91 158.99C213.39 158.99 212.01 159.3 210.81 159.9C209.89 160.37 209.12 160.97 208.52 161.7C208.56 161.16 208.58 160.55 208.58 159.88V152.36H204.75V180.97H208.58V169.68C208.58 167.04 209.07 165.13 210.03 164C210.97 162.88 212.52 162.31 214.61 162.31C216.16 162.31 217.32 162.7 218.03 163.47C218.74 164.25 219.11 165.46 219.11 167.08V180.98H222.94V166.97C222.94 164.24 222.26 162.2 220.92 160.93C219.58 159.66 217.56 159.01 214.92 159.01" fill="#027DBD"/>
<path d="M236.54 158.95C233.65 158.95 231.31 159.99 229.58 162.05C227.87 164.09 227.01 166.87 227.01 170.32C227.01 173.77 227.94 176.47 229.79 178.41C231.64 180.36 234.19 181.34 237.37 181.34C238.8 181.34 240.05 181.23 241.06 181.02C242.08 180.81 243.17 180.45 244.31 179.96L244.51 179.88V176.34L244.05 176.53C241.9 177.45 239.69 177.92 237.48 177.92C235.44 177.92 233.84 177.31 232.73 176.11C231.66 174.96 231.07 173.26 230.96 171.05H245.4V168.72C245.4 165.82 244.6 163.44 243.02 161.66C241.43 159.87 239.25 158.96 236.54 158.96M236.5 162.27C238.07 162.27 239.24 162.75 240.08 163.75C240.87 164.69 241.29 166.06 241.34 167.81H231.07C231.28 166.12 231.83 164.77 232.72 163.8C233.67 162.76 234.91 162.26 236.51 162.26" fill="#027DBD"/>
<path d="M263.77 175.03L255.06 152.33H249.61V180.96H253.27V162.83C253.27 160.88 253.22 159.1 253.13 157.52L262.02 180.74L262.1 180.95H265.17L274.23 157.5C274.12 159.3 274.07 161.01 274.07 162.6V180.95H277.98V152.32H272.57L263.78 175.02L263.77 175.03Z" fill="#027DBD"/>
<path d="M291.43 158.95C288.54 158.95 286.2 159.99 284.47 162.05C282.76 164.09 281.9 166.87 281.9 170.32C281.9 173.77 282.83 176.47 284.68 178.41C286.53 180.36 289.08 181.34 292.26 181.34C293.69 181.34 294.94 181.23 295.95 181.02C296.97 180.81 298.06 180.45 299.2 179.96L299.4 179.88V176.34L298.94 176.53C296.79 177.45 294.58 177.92 292.37 177.92C290.33 177.92 288.73 177.31 287.62 176.11C286.55 174.96 285.96 173.26 285.85 171.05H300.28V168.72C300.28 165.82 299.48 163.44 297.9 161.66C296.31 159.87 294.13 158.96 291.42 158.96M291.38 162.27C292.95 162.27 294.12 162.75 294.96 163.75C295.75 164.69 296.17 166.06 296.22 167.81H285.95C286.16 166.12 286.71 164.77 287.6 163.8C288.55 162.76 289.79 162.26 291.39 162.26" fill="#027DBD"/>
<path d="M312.58 158.99C311.32 158.99 310.04 159.15 308.79 159.48C307.54 159.8 306.37 160.26 305.32 160.83L305.07 160.97L306.28 164L306.6 163.85C308.75 162.81 310.7 162.28 312.39 162.28C313.84 162.28 314.9 162.64 315.54 163.35C316.19 164.07 316.52 165.22 316.52 166.78V167.76L313.28 167.86C306.32 168.07 302.8 170.42 302.8 174.85C302.8 176.92 303.43 178.54 304.68 179.67C305.92 180.79 307.63 181.36 309.79 181.36C311.39 181.36 312.74 181.12 313.82 180.63C314.79 180.19 315.78 179.39 316.76 178.25L317.34 180.98H320.29V166.34C320.29 163.81 319.65 161.93 318.37 160.76C317.11 159.6 315.16 159.01 312.59 159.01M316.45 170.68V172.23C316.45 174.08 315.91 175.53 314.85 176.55C313.79 177.57 312.3 178.09 310.42 178.09C309.26 178.09 308.35 177.81 307.71 177.27C307.08 176.73 306.78 175.95 306.78 174.9C306.78 173.54 307.28 172.57 308.3 171.93C309.36 171.27 311.15 170.89 313.61 170.8L316.44 170.68H316.45Z" fill="#027DBD"/>
<path d="M328.43 152.33H324.6V180.97H328.43V152.33Z" fill="#027DBD"/>
<path d="M492.26 82.7202C492.16 82.7202 492.12 82.8602 492.21 82.9102C496.96 85.9702 496.47 88.7302 505.25 95.1702C505.29 95.1902 505.33 95.1602 505.32 95.1202C503.31 88.2902 498.63 82.9202 492.26 82.7202ZM504.47 85.9302C504.4 85.8702 504.31 85.9602 504.36 86.0402C505.94 88.6002 506.49 91.3402 507.12 94.2102L508.52 100.95C508.52 100.95 508.47 101.03 508.44 100.98C507.2 98.9202 501.41 96.0502 497.62 93.0802C497.56 93.0302 497.47 93.1002 497.5 93.1702C499.64 99.4302 506.57 102.12 510.81 106.72C510.86 106.77 510.95 106.74 510.94 106.66C510.62 99.9002 511.68 91.6302 504.47 85.9202M516.82 107.71C516.66 103.3 515.71 99.2202 512.87 95.7402C512.81 95.6602 512.69 95.7302 512.72 95.8302C514.59 102.7 512.6 108.71 513.36 113.88C513.36 113.96 513.28 113.97 513.26 113.91C511.37 109.29 506.18 107.03 503.88 103.83C503.82 103.75 503.7 103.81 503.72 103.91C505.85 113.04 512.66 115.94 514.02 120.76C514.04 120.84 514.15 120.85 514.17 120.76C515.11 117.09 517.02 113.14 516.83 107.72M519.26 112.72C519.22 112.62 519.07 112.65 519.07 112.75C518.9 119.48 514.95 124.69 514.16 129.34C514.15 129.39 514.08 129.39 514.08 129.33C513.94 123.31 509.59 119.68 507.15 115.11C507.1 115.03 506.97 115.06 506.97 115.15C506.61 123.87 512.9 129.29 512.69 136.55C512.69 136.65 512.8 136.69 512.86 136.62C517.82 129.76 522.49 121.46 519.25 112.71M520.8 130.72C520.8 130.62 520.65 130.59 520.61 130.68C517.57 136.82 513.93 138.22 509.34 144.93C509.31 144.97 509.25 144.94 509.26 144.9C511.06 139.49 508.09 132.32 507.97 127.52C507.97 127.42 507.83 127.4 507.79 127.5C504.16 136.29 507.98 145.34 504.79 151.27C504.75 151.34 504.82 151.41 504.89 151.38C509.43 149.12 513.72 145.74 517.05 141.46C519.13 138.3 520.98 134.9 520.78 130.72M516.25 147.05C513.08 151.48 505.94 153.12 498.99 158.59C498.95 158.62 498.89 158.57 498.93 158.52C502.45 153.84 502.06 147.45 503.35 141.83C503.37 141.75 503.27 141.7 503.21 141.77C496.48 149.4 497.33 157.75 494.35 161.66C494.31 161.71 494.35 161.78 494.41 161.78C504.59 161.76 515.59 152.84 516.38 147.11C516.39 147.03 516.29 147 516.24 147.06M506.54 162.33C497.59 166.38 493.99 164.09 485.44 165.74C485.39 165.76 485.36 165.68 485.41 165.65C491.37 162.44 492.49 157.23 494.55 153.83C494.6 153.76 494.52 153.68 494.45 153.72C487.89 156.92 485.74 164.27 477.89 166.17C477.81 166.19 477.81 166.3 477.89 166.32C481.2 167.09 483.69 168.54 487.14 168.84C496.71 169.64 503.7 166.72 506.64 162.45C506.69 162.38 506.61 162.3 506.53 162.33M433.04 82.7202C426.67 82.9202 421.99 88.2902 419.98 95.1202C419.97 95.1602 420.02 95.1902 420.06 95.1702C428.84 88.7302 428.35 85.9802 433.11 82.9102C433.19 82.8602 433.16 82.7202 433.05 82.7202M427.68 93.0802C423.89 96.0502 418.1 98.9102 416.86 100.98C416.84 101.02 416.77 100.99 416.78 100.95L418.18 94.2102C418.81 91.3502 419.35 88.6102 420.94 86.0402C420.99 85.9602 420.9 85.8802 420.83 85.9302C413.62 91.6402 414.67 99.9002 414.35 106.67C414.35 106.74 414.43 106.77 414.48 106.73C418.73 102.12 425.65 99.4402 427.79 93.1802C427.82 93.1002 427.74 93.0402 427.67 93.0902M421.42 103.85C419.11 107.05 413.93 109.31 412.04 113.93C412.01 113.99 411.93 113.98 411.94 113.9C412.7 108.73 410.7 102.72 412.57 95.8502C412.6 95.7502 412.48 95.6902 412.42 95.7602C409.59 99.2402 408.63 103.33 408.47 107.73C408.28 113.15 410.18 117.1 411.12 120.77C411.14 120.86 411.26 120.85 411.28 120.77C412.64 115.95 419.45 113.05 421.58 103.92C421.61 103.82 421.48 103.76 421.43 103.84M418.33 115.16C418.33 115.06 418.19 115.03 418.15 115.12C415.71 119.69 411.37 123.32 411.23 129.34C411.23 129.4 411.16 129.41 411.15 129.35C410.36 124.7 406.42 119.49 406.24 112.76C406.24 112.66 406.1 112.63 406.06 112.73C402.81 121.49 407.48 129.78 412.45 136.64C412.5 136.71 412.61 136.67 412.61 136.57C412.41 129.31 418.7 123.88 418.34 115.17M420.51 151.28C417.31 145.35 421.13 136.3 417.51 127.51C417.47 127.41 417.33 127.44 417.33 127.53C417.22 132.33 414.24 139.5 416.04 144.91C416.06 144.96 416 144.99 415.97 144.94C411.38 138.23 407.73 136.83 404.7 130.69C404.66 130.6 404.52 130.62 404.51 130.73C404.31 134.9 406.16 138.3 408.24 141.47C411.57 145.75 415.86 149.13 420.4 151.39C420.47 151.42 420.53 151.35 420.5 151.28M430.92 161.67C427.94 157.76 428.79 149.42 422.06 141.78C422.01 141.72 421.91 141.77 421.92 141.84C423.21 147.46 422.83 153.85 426.35 158.53C426.38 158.58 426.33 158.63 426.28 158.6C419.34 153.13 412.2 151.49 409.02 147.06C408.97 147 408.88 147.03 408.88 147.11C409.67 152.84 420.67 161.77 430.85 161.78C430.91 161.78 430.95 161.71 430.91 161.66M447.35 166.17C439.5 164.27 437.36 156.91 430.79 153.72C430.72 153.68 430.64 153.76 430.69 153.83C432.76 157.23 433.88 162.44 439.84 165.65C439.89 165.68 439.86 165.75 439.81 165.74C431.26 164.09 427.67 166.38 418.71 162.33C418.63 162.3 418.55 162.38 418.6 162.45C421.54 166.72 428.53 169.64 438.1 168.84C441.55 168.54 444.05 167.09 447.35 166.32C447.43 166.3 447.43 166.19 447.35 166.17ZM496.84 171.35C493.76 172.57 489.74 172.67 486.46 171.8C478.95 169.46 470.61 165.03 462.61 168.71C454.61 165.03 446.27 169.46 438.76 171.8C435.48 172.67 431.47 172.57 428.38 171.35C428.29 171.32 428.23 171.43 428.3 171.49C432.73 174.91 438.94 176.49 444.53 174.47C449.9 172.8 454.44 167.11 460.79 169.54C455.76 171.51 451.05 175.14 447.42 178.57L450.06 180.74C453.36 176.9 457.08 173.06 461.28 170.72C461.86 170.38 462.2 170.24 462.6 170.22C463.01 170.24 463.35 170.38 463.92 170.72C468.13 173.06 471.84 176.9 475.15 180.74L477.79 178.57C474.16 175.14 469.45 171.51 464.42 169.54C470.78 167.11 475.32 172.8 480.68 174.47C486.27 176.49 492.47 174.91 496.9 171.49C496.97 171.43 496.91 171.32 496.83 171.35M466.16 150.49H453.97C453.14 150.49 452.39 150.42 451.7 150.3C453.7 153.28 456.84 155.53 460.02 157.05C460.51 159.76 461.12 162.28 461.34 162.47C461.57 162.67 464.69 161.77 464.79 161.48C464.88 161.19 463.51 156.54 463.51 156.54C465.15 153.72 465.66 152.06 466.15 150.48M487.4 87.2202C487.1 87.0002 486.12 89.4302 484.96 90.0602C484.74 90.1702 484.54 90.3802 484.39 90.6602C484.24 90.9502 484.19 91.2602 484.23 91.5102C484.26 91.7602 484.37 91.9802 484.56 92.0902C484.76 92.2002 484.99 92.2002 485.21 92.0902C485.44 91.9802 485.64 91.7702 485.79 91.4802C485.93 91.2002 485.98 90.8902 485.95 90.6402C485.86 89.2602 487.61 87.3602 487.4 87.2202ZM488.29 90.6902C488.11 90.5002 486.62 93.0002 485.27 92.7002C485.01 92.6302 484.72 92.6402 484.45 92.7802C484.32 92.8302 484.2 92.9302 484.11 93.0202C484.11 92.9602 484.13 92.9002 484.13 92.8402C484.1 92.5202 483.97 92.2302 483.78 92.0302C482.87 90.9202 484.14 88.2802 483.89 88.2002C483.64 88.1302 483.21 90.9002 482.46 92.1002C482.31 92.3302 482.23 92.6202 482.26 92.9502C482.28 93.2702 482.42 93.5602 482.6 93.7602C482.8 93.9602 483.03 94.0702 483.29 94.0502C483.49 94.0502 483.65 93.9402 483.79 93.8102C483.79 93.9202 483.81 94.0402 483.87 94.1502C483.99 94.4002 484.2 94.5702 484.46 94.6502C484.72 94.7302 485.01 94.7102 485.28 94.5802C485.55 94.4402 485.76 94.2302 485.86 93.9802C486.45 92.6602 488.47 90.8802 488.29 90.6902ZM487.78 93.7302C487.61 93.4902 485.53 95.9202 484.12 95.3102C483.85 95.1702 483.52 95.1302 483.2 95.2202C483.02 95.2702 482.86 95.3702 482.72 95.4902C482.72 95.3902 482.72 95.3002 482.7 95.2202C482.61 94.8702 482.42 94.5902 482.18 94.4002C480.99 93.3602 481.92 90.2102 481.64 90.1802C481.36 90.1502 481.36 93.2802 480.75 94.7502C480.62 95.0202 480.58 95.3602 480.67 95.7102C480.76 96.0602 480.95 96.3502 481.19 96.5302C481.43 96.7102 481.72 96.7902 482 96.7202C482.12 96.6902 482.23 96.6202 482.33 96.5502C482.33 96.5702 482.33 96.5902 482.33 96.6102C482.42 96.9102 482.62 97.1402 482.89 97.2802C483.16 97.4002 483.49 97.4502 483.8 97.3502C484.13 97.2602 484.39 97.0602 484.55 96.8202C485.43 95.5102 487.96 93.9702 487.79 93.7202M482.77 98.1602C482.49 98.0302 482.13 98.0002 481.77 98.0802C481.5 98.1502 481.28 98.2802 481.1 98.4302C481.13 98.2002 481.13 97.9702 481.06 97.7202C480.97 97.3302 480.78 97.0102 480.54 96.8002C479.37 95.6302 480.17 92.1002 479.9 92.0602C479.63 92.0202 479.73 95.5402 479.17 97.1802C479.06 97.4802 479.03 97.8702 479.13 98.2602C479.23 98.6502 479.42 98.9702 479.66 99.1902C479.89 99.3902 480.17 99.4802 480.43 99.4002C480.5 99.3902 480.57 99.3602 480.63 99.3102C480.63 99.3502 480.63 99.4002 480.63 99.4402C480.69 99.7302 480.89 99.9502 481.17 100.08C481.46 100.22 481.81 100.25 482.17 100.16C482.54 100.07 482.85 99.8702 483.05 99.6302C484.15 98.3502 486.75 96.5202 486.59 96.2802C486.43 96.0402 484.24 98.7302 482.74 98.1602M469.07 105.33C470.4 103.14 472.39 101.46 474.07 99.4302C474.13 99.3502 474.12 99.2302 474.05 99.1702C473.98 99.1002 473.88 99.1002 473.81 99.1702C473.43 99.5802 473.03 99.9602 472.62 100.34C472.44 100.25 471.99 100.43 471.53 100.79C471.17 101.07 470.91 101.39 470.82 101.62C470.59 101.56 470.15 101.84 469.76 102.34C469.44 102.76 469.25 103.2 469.25 103.48C469 103.5 468.64 103.82 468.33 104.32C468.13 104.65 468 104.97 467.96 105.24C467.76 105.38 467.53 105.63 467.32 105.97C467.05 106.43 466.9 106.89 466.95 107.16C466.89 107.27 466.82 107.38 466.77 107.5C466.78 107.41 466.79 107.32 466.8 107.23C467.19 104.13 467.77 101.05 468.63 98.0902C469.5 95.1402 470.55 92.1502 472.34 89.7602H472.35C472.44 89.6202 472.43 89.4402 472.32 89.3202C472.21 89.1902 472.02 89.1902 471.9 89.3202C471.28 89.9802 470.76 90.7202 470.29 91.4702C470.09 91.3602 469.65 91.7602 469.33 92.3902C469.03 92.9602 468.92 93.4902 469.03 93.6902C469.03 93.6902 469.03 93.7102 469.01 93.7002C468.79 93.6102 468.39 94.0902 468.15 94.7302C467.91 95.3402 467.87 95.8902 468.03 96.0802C468.02 96.0902 468.02 96.1002 468.01 96.1102C467.77 96.0202 467.37 96.5702 467.13 97.3502C466.93 98.0102 466.91 98.5802 467.05 98.8102C467.06 98.8202 467.05 98.8502 467.04 98.8502C466.8 98.7602 466.42 99.3302 466.2 100.1C465.98 100.85 466 101.51 466.2 101.64C465.96 101.61 465.62 102.18 465.44 102.95C465.28 103.61 465.3 104.19 465.45 104.42C465.21 104.49 464.95 105.05 464.81 105.77C464.68 106.47 464.74 107.05 464.92 107.24C464.7 107.36 464.47 107.93 464.39 108.64C464.31 109.34 464.41 109.92 464.59 110.11C464.41 110.32 464.23 110.81 464.16 111.4C464.08 111.96 464.13 112.45 464.24 112.72C464.04 112.89 463.89 113.46 463.89 114.14C463.87 114.68 463.96 115.15 464.09 115.41C463.98 115.68 463.91 116.08 463.91 116.52C463.9 117.09 463.99 117.58 464.14 117.84C464.1 119.85 464.12 121.99 464.23 124.01H468.58C468.61 122.44 468.72 120.73 468.87 119.18C469.18 116.41 469.63 113.6 471.02 111.23H471.03C471.07 111.13 471.07 111.03 471 110.95C470.92 110.88 470.81 110.88 470.73 110.97C468.85 113.15 468.03 116.11 467.54 118.95C467.45 119.5 467.38 120.07 467.32 120.62C467.44 118.34 467.65 116.07 468.17 113.92C468.77 111.29 469.96 108.79 472.24 107.39C472.31 107.35 472.35 107.25 472.32 107.16C472.3 107.06 472.18 107 472.09 107.02C471.95 107.06 471.81 107.14 471.67 107.2C471.52 107.01 470.97 107.15 470.39 107.51C469.85 107.87 469.49 108.3 469.53 108.54C469.53 108.55 469.5 108.56 469.5 108.54C469.5 108.52 469.49 108.49 469.48 108.47C469.27 108.3 468.72 108.68 468.26 109.33C467.79 109.98 467.61 110.65 467.81 110.83C467.82 110.83 467.81 110.85 467.81 110.85C467.57 110.75 467.16 111.3 466.91 112.07C466.73 112.61 466.68 113.11 466.75 113.39C466.75 113.4 466.74 113.41 466.74 113.41C466.55 114.03 466.39 114.66 466.25 115.3C466.3 114.4 466.39 113.49 466.51 112.6C466.89 110.03 467.67 107.51 469.04 105.36M480.02 117.76C479.92 117.61 479.67 117.57 479.55 117.7C477.12 120.26 475.65 122.99 475.14 124H476.58C477.3 122.3 478.93 119.31 479.97 118.23H479.98C480.09 118.1 480.11 117.9 480.01 117.76M478.01 160.63V160.61C477.55 159.36 476.93 158.25 476.44 157.05C475.92 155.85 475.41 154.67 474.99 153.44C474.64 152.52 474.27 151.46 473.98 150.5H472.64C473.02 151.62 473.51 152.82 473.97 153.9C474.98 156.33 476.14 158.72 477.62 160.86C477.67 160.94 477.77 160.97 477.87 160.93C477.99 160.89 478.04 160.75 478 160.63M477.54 155.37C477.17 153.88 476.78 152.05 476.44 150.49H475.06C475.6 152.15 476.32 153.99 476.97 155.57C477.04 155.72 477.18 155.8 477.32 155.76C477.49 155.71 477.58 155.53 477.54 155.36M473.86 159.42L471.72 150.49H468.08C468.66 152.76 469.48 155.06 470.55 157.08C470.62 157.2 470.75 157.27 470.88 157.25C471.05 157.23 471.19 157.05 471.15 156.86C470.91 154.97 470.61 153.14 470.33 151.32C471.1 154.18 472.14 156.98 473.54 159.55C473.58 159.63 473.66 159.67 473.73 159.64C473.83 159.62 473.89 159.51 473.86 159.41M492.86 101.5C491.53 101.15 483 99.6402 473.44 117.22C474.83 110.68 479.07 102.76 480.23 100.46V100.44C480.3 100.31 480.26 100.14 480.15 100.05C480.03 99.9602 479.85 99.9902 479.76 100.12C473.44 110.65 471.23 116.71 469.92 123.98H473.88C474.55 116.98 483.39 100.49 492.81 101.72C492.86 101.73 492.91 101.69 492.92 101.64C492.94 101.58 492.91 101.52 492.85 101.51M458.32 92.5702C458.26 92.4802 458.15 92.4402 458.05 92.4702C457.92 92.5102 457.84 92.6602 457.88 92.7802C460.35 99.4202 457.2 102.69 455.88 107.34C454.29 103.56 459.54 100.01 456.84 93.1302C456.8 93.0402 456.73 92.9702 456.64 92.9602C456.5 92.9402 456.37 93.0002 456.35 93.1802C456.28 93.6602 455.96 97.4802 452.87 99.7102C452.55 98.9802 452.08 98.2202 451.43 97.6202C451.14 96.3302 450.3 94.5702 448.54 94.0502C448.28 93.3802 447.74 92.4302 446.72 91.9202C445.76 91.4402 444.64 91.4902 443.4 92.0502C441.9 92.2202 440.88 92.8102 440.33 93.7802C439.82 94.7002 439.91 95.7102 440.08 96.3902C438.82 97.7402 438.76 99.7302 438.79 100.51C438.04 102.31 438.46 104.41 438.7 105.28C437.81 107.72 438.68 110.09 439.03 110.88C439.03 111.09 439.04 111.3 439.05 111.5C436.12 108.29 429.46 104.33 426.91 102.81C426.79 102.74 426.64 102.76 426.54 102.85C426.41 102.97 426.41 103.17 426.52 103.3C432.2 108.84 437.27 115.67 442.13 129.85C444.56 127.33 448.94 124.01 455.19 124.01H462.49C457.85 106.72 464.61 100.54 458.31 92.6002M454.13 106.27C454.75 107.03 454.52 108.37 453.43 108.43C452.86 108.46 452.13 108.4 451.74 107.94C451.13 107.2 451.36 105.81 452.44 105.77C453.01 105.75 453.74 105.81 454.12 106.27M452.57 102.13C453.55 102.54 453.89 103.7 453.19 104.35C452.82 104.69 452.14 104.62 451.68 104.53C450.77 104.35 450.17 102.98 450.97 102.32C451.38 101.99 452.12 101.95 452.57 102.13ZM448.52 105.95C449.32 105.87 450.15 105.68 450.64 106.52C451.15 107.4 450.77 108.63 449.73 108.84C449.05 108.98 448.23 109.04 447.75 108.45C447.11 107.66 447.37 106.07 448.52 105.96M446.73 103.76C446.23 102.04 449.15 101.27 449.59 102.98C450.04 104.71 447.11 105.48 446.73 103.76ZM450.63 98.8402C451.44 98.8402 451.85 100.03 451.37 100.63C451.09 100.99 450.47 101.01 450.05 100.95C449.28 100.83 448.78 99.8302 449.3 99.1602C449.62 98.7502 450.16 98.8502 450.62 98.8502M448.47 95.7202C448.91 95.6002 449.38 95.6402 449.73 96.0102C450.25 96.5602 450.07 97.5102 449.3 97.6502C448.94 97.7202 448.39 97.6902 448.1 97.4402C447.59 96.9902 447.62 95.9402 448.47 95.7102M448.33 99.7102C448.83 101.2 446.31 102 445.85 100.52C445.38 99.0202 447.92 98.2202 448.33 99.7102ZM444.76 97.3102C444.37 96.0002 446.5 95.3302 446.91 96.6002C447.33 97.9002 445.12 98.5902 444.76 97.3102ZM444.75 104.05C444.15 104.19 443.52 104.43 443.02 103.91C442.38 103.25 442.56 102.09 443.43 101.78C443.99 101.57 444.7 101.45 445.16 101.91C445.75 102.51 445.68 103.82 444.75 104.04M445.14 93.0002C445.57 92.8302 446.11 92.6502 446.59 93.0002C447.18 93.4402 447.05 94.4402 446.37 94.7502C445.92 94.9502 445.35 95.0902 444.96 94.7302C444.45 94.2802 444.43 93.2802 445.14 93.0002ZM444.86 99.4302C445.34 100.75 443.11 101.5 442.67 100.19C442.22 98.8702 444.47 98.1202 444.86 99.4302ZM441.54 97.3002C441.21 96.0802 443.27 95.5002 443.6 96.7502C443.97 97.9502 441.87 98.5502 441.54 97.3002ZM441.86 93.5902C442.27 93.3702 442.85 93.2802 443.22 93.6902C443.65 94.1702 443.51 94.9102 442.94 95.2002C442.51 95.4202 441.92 95.5002 441.57 95.1002C441.19 94.6602 441.27 93.9102 441.85 93.6002M440.03 98.4802C440.36 98.2602 440.8 98.0602 441.17 98.2102C441.86 98.4902 441.83 99.4802 441.28 99.8802C441.03 100.06 440.57 100.28 440.26 100.2C439.56 100.03 439.4 98.9002 440.03 98.4702M439.93 101.89C440.33 101.54 440.79 101.35 441.26 101.57C442.02 101.94 442.04 103.08 441.38 103.53C441.08 103.74 440.57 104 440.2 103.9C439.38 103.7 439.23 102.51 439.93 101.89ZM442.2 105.61C443.1 107.21 440.39 108.99 439.62 107.27C438.93 105.79 441.34 104.06 442.2 105.61ZM439.81 111.07C439.03 109.35 441.87 107.48 442.73 109.34C443.52 111.05 440.68 112.95 439.81 111.07ZM442.81 114.94C442.65 115.04 442.59 115.09 442.53 115.09L440.95 113.37C440.97 113.32 441.46 112.97 441.62 112.87C442.94 112.14 444.02 114.23 442.81 114.94ZM443.15 107.01C442.57 105.06 445.9 104.2 446.4 106.12C446.92 108.09 443.6 108.94 443.15 107.01ZM443.65 111.13C443.05 109.04 446.58 108.13 447.13 110.18C447.69 112.3 444.13 113.2 443.65 111.13ZM444.17 115.32C443.58 113.22 447.1 112.31 447.64 114.37C448.2 116.48 444.65 117.38 444.17 115.32ZM448.28 119.22C448.07 119.98 447.44 120.09 446.79 120.25C446.36 119.72 445.2 118.39 445.18 118.23C445.18 118.18 445.18 118.12 445.21 118.05C445.26 117.89 445.45 117.74 445.58 117.65C445.97 117.39 446.81 117.2 447.26 117.3C448.07 117.47 448.5 118.46 448.28 119.23M449.05 110.11C449.88 109.91 450.74 109.6 451.37 110.41C452.03 111.26 451.81 112.64 450.74 113C450.03 113.23 449.17 113.44 448.57 112.86C447.78 112.11 447.84 110.39 449.05 110.11ZM449.82 114.33C450.61 114.14 451.42 113.85 452.02 114.62C452.66 115.43 452.44 116.73 451.42 117.08C450.75 117.31 449.93 117.51 449.36 116.95C448.61 116.23 448.66 114.59 449.82 114.33ZM453.02 120.73C452.95 121.11 452.44 121.16 452.09 121.26C451.07 121.56 450.11 121.43 449.8 120.22C449.46 118.92 450.44 118.37 451.5 118.12C452.08 117.98 452.61 118.1 453 118.58C453.1 118.7 453.22 118.81 453.24 118.93C453.24 118.93 453.08 120.37 453.02 120.73ZM453.79 115.2C453.76 115.37 453.74 115.54 453.71 115.71C453.17 115.37 452.85 114.6 453.11 113.99C453.31 113.53 453.8 113.4 454.16 113.39C454.03 113.99 453.9 114.6 453.78 115.21M454.78 110.73C454.73 110.92 454.35 112.4 454.35 112.4C454.24 112.46 453.79 112.36 453.67 112.35C452.81 112.27 452.03 111.52 452.37 110.62C452.64 109.89 453.2 109.81 453.9 109.78C454.19 109.77 454.72 109.84 454.98 110.02C454.98 110.02 454.88 110.36 454.78 110.73ZM491.07 108.12C490.86 107.81 489.11 109.73 487.81 109.92C487.57 109.95 487.3 110.07 487.07 110.28C486.83 110.5 486.67 110.77 486.62 111.02C486.56 111.27 486.6 111.52 486.73 111.69C486.87 111.86 487.09 111.94 487.34 111.91C487.59 111.88 487.85 111.76 488.09 111.54C488.32 111.33 488.47 111.06 488.53 110.81C488.92 109.49 491.22 108.32 491.07 108.12ZM487.19 112.5C486.98 112.34 486.69 112.26 486.39 112.29C486.25 112.29 486.11 112.34 485.99 112.39C486.01 112.33 486.05 112.28 486.07 112.22C486.15 111.91 486.12 111.59 486.02 111.34C485.55 109.98 487.65 107.96 487.44 107.8C487.24 107.65 485.87 110.09 484.75 110.95C484.54 111.11 484.36 111.36 484.28 111.68C484.19 111.98 484.21 112.31 484.32 112.56C484.43 112.82 484.61 113.01 484.86 113.08C485.05 113.14 485.24 113.1 485.41 113.03C485.37 113.13 485.35 113.25 485.36 113.38C485.39 113.66 485.52 113.89 485.74 114.05C485.95 114.21 486.24 114.3 486.53 114.27C486.84 114.24 487.1 114.11 487.29 113.91C488.3 112.89 490.8 111.94 490.7 111.69C490.59 111.45 488.33 113.26 487.17 112.5M485.19 114.54C484.99 114.32 484.69 114.17 484.35 114.13C484.16 114.13 483.98 114.15 483.8 114.22C483.83 114.12 483.86 114.04 483.88 113.95C483.92 113.59 483.83 113.26 483.67 113C482.92 111.61 484.87 108.99 484.62 108.86C484.36 108.73 483.29 111.67 482.21 112.83C482 113.04 481.85 113.34 481.81 113.7C481.78 114.06 481.86 114.4 482.02 114.66C482.19 114.91 482.43 115.09 482.72 115.13C482.84 115.13 482.97 115.12 483.08 115.09C483.08 115.11 483.06 115.13 483.06 115.14C483.03 115.44 483.14 115.74 483.35 115.96C483.55 116.18 483.85 116.33 484.18 116.36C484.52 116.4 484.83 116.3 485.07 116.12C486.34 115.2 489.24 114.66 489.17 114.36C489.1 114.08 486.32 115.62 485.2 114.54M482.94 116.74C482.72 116.52 482.4 116.37 482.03 116.32C481.76 116.28 481.51 116.32 481.29 116.4C481.39 116.2 481.47 115.98 481.5 115.73C481.55 115.33 481.48 114.96 481.33 114.68C480.64 113.17 482.61 110.15 482.36 110.01C482.12 109.88 481 113.21 479.92 114.56C479.71 114.81 479.56 115.16 479.51 115.56C479.47 115.96 479.53 116.33 479.69 116.61C479.84 116.88 480.07 117.07 480.34 117.09C480.42 117.09 480.49 117.09 480.56 117.08C480.54 117.12 480.53 117.16 480.52 117.2C480.48 117.5 480.59 117.77 480.81 118C481.02 118.23 481.34 118.38 481.71 118.42C482.09 118.47 482.45 118.4 482.72 118.23C484.2 117.42 487.25 116.63 487.19 116.34C487.13 116.06 484.15 117.81 482.94 116.73M452.29 130.32C446.72 130.32 442.1 132.75 441.02 133.36C440.96 133.39 440.9 133.33 440.94 133.27C441.85 131.94 446.72 125.4 455.11 125.4H476.48C477.63 125.4 478.57 126.5 478.57 127.86C478.57 129.22 477.64 130.32 476.48 130.32H452.29ZM453.79 149.15C446.87 149.15 446.31 144.04 436.05 142.89C435.98 142.89 435.97 142.78 436.05 142.76C444.48 140.65 447.61 144.23 452.54 144.23H476.48C477.63 144.23 478.57 145.33 478.57 146.69C478.57 148.05 477.64 149.15 476.48 149.15H453.8H453.79ZM453.31 142.92C446.57 142.92 444.6 139.09 434.39 141.62C434.32 141.64 434.27 141.54 434.33 141.5C440.02 137.6 446.21 137.95 448.71 137.95H476.47C477.62 137.95 478.56 139.05 478.56 140.41C478.56 141.77 477.63 142.87 476.47 142.87C476.47 142.87 458.65 142.92 453.31 142.92ZM448.15 136.59C441.89 136.59 437.88 138.07 436.78 138.54C436.71 138.56 436.66 138.48 436.71 138.42C443.59 131.27 451.64 131.67 453.57 131.67H476.47C477.62 131.67 478.56 132.77 478.56 134.13C478.56 135.49 477.63 136.59 476.47 136.59H448.15ZM456.51 80.5602H452.62L450.44 72.1002C450.36 71.8002 450.22 71.1802 450.03 70.2302C449.83 69.2902 449.72 68.6502 449.69 68.3302C449.65 68.7302 449.54 69.3602 449.36 70.2402C449.18 71.1202 449.05 71.7402 448.95 72.1202L446.78 80.5602H442.9L438.79 64.4502H442.15L444.21 73.2402C444.57 74.8602 444.83 76.2702 444.99 77.4602C445.03 77.0402 445.14 76.3902 445.29 75.5202C445.45 74.6402 445.6 73.9602 445.74 73.4802L448.09 64.4602H451.32L453.67 73.4802C453.77 73.8802 453.9 74.5002 454.06 75.3302C454.21 76.1602 454.33 76.8702 454.41 77.4702C454.48 76.9002 454.6 76.1802 454.76 75.3302C454.92 74.4802 455.07 73.7802 455.2 73.2502L457.25 64.4602H460.61L456.51 80.5702V80.5602ZM465.79 80.5602H462.43V64.4502H471.66V67.2502H465.79V71.4002H471.26V74.1902H465.79V80.5602ZM485.35 69.4802C485.35 71.2102 484.81 72.5402 483.72 73.4602C482.63 74.3802 481.1 74.8402 479.1 74.8402H477.63V80.5702H474.21V64.4602H479.36C481.31 64.4602 482.8 64.8802 483.82 65.7202C484.84 66.5602 485.35 67.8102 485.35 69.4802ZM477.64 72.0402H478.76C479.81 72.0402 480.6 71.8302 481.12 71.4202C481.64 71.0002 481.9 70.4002 481.9 69.6102C481.9 68.8202 481.68 68.2202 481.25 67.8402C480.81 67.4602 480.13 67.2702 479.2 67.2702H477.65V72.0502L477.64 72.0402Z" fill="#027DBD"/>
<path d="M546.82 124.26H542.93L540.75 115.8C540.67 115.5 540.53 114.88 540.33 113.93C540.14 112.99 540.02 112.35 539.99 112.03C539.95 112.43 539.84 113.06 539.66 113.94C539.48 114.82 539.35 115.44 539.25 115.82L537.08 124.26H533.2L529.09 108.15H532.45L534.51 116.94C534.87 118.56 535.13 119.97 535.29 121.16C535.33 120.74 535.44 120.09 535.6 119.21C535.76 118.33 535.9 117.65 536.04 117.17L538.39 108.15H541.62L543.96 117.17C544.06 117.57 544.19 118.19 544.35 119.02C544.5 119.85 544.62 120.56 544.7 121.16C544.77 120.58 544.89 119.87 545.05 119.02C545.21 118.16 545.36 117.47 545.49 116.94L547.53 108.15H550.89L546.79 124.26H546.82Z" fill="#027DBD"/>
<path d="M563.83 118.08C563.83 120.09 563.3 121.65 562.24 122.79C561.18 123.92 559.71 124.49 557.82 124.49C556.64 124.49 555.6 124.23 554.69 123.71C553.79 123.19 553.09 122.45 552.61 121.48C552.13 120.51 551.88 119.38 551.88 118.09C551.88 116.08 552.41 114.51 553.46 113.4C554.51 112.28 555.99 111.72 557.89 111.72C559.07 111.72 560.11 111.98 561.02 112.49C561.92 113.01 562.61 113.74 563.1 114.7C563.59 115.66 563.83 116.79 563.83 118.08ZM555.31 118.08C555.31 119.3 555.51 120.22 555.91 120.85C556.31 121.48 556.96 121.79 557.87 121.79C558.78 121.79 559.41 121.48 559.8 120.86C560.19 120.24 560.39 119.32 560.39 118.09C560.39 116.86 560.19 115.96 559.8 115.35C559.4 114.74 558.75 114.43 557.85 114.43C556.95 114.43 556.31 114.74 555.91 115.34C555.51 115.95 555.31 116.86 555.31 118.09" fill="#027DBD"/>
<path d="M573.7 111.71C574.16 111.71 574.53 111.74 574.83 111.81L574.58 114.96C574.31 114.88 573.98 114.85 573.59 114.85C572.52 114.85 571.68 115.12 571.08 115.68C570.48 116.23 570.18 117 570.18 117.99V124.26H566.82V111.94H569.36L569.86 114.01H570.02C570.4 113.32 570.92 112.76 571.57 112.34C572.22 111.92 572.93 111.71 573.69 111.71" fill="#027DBD"/>
<path d="M580.62 107.12H577.26V124.26H580.62V107.12Z" fill="#027DBD"/>
<path d="M588.46 124.48C587.01 124.48 585.87 123.92 585.05 122.79C584.22 121.67 583.81 120.11 583.81 118.12C583.81 116.13 584.23 114.53 585.07 113.4C585.91 112.27 587.07 111.71 588.55 111.71C590.1 111.71 591.28 112.31 592.1 113.52H592.21C592.04 112.6 591.95 111.78 591.95 111.06V107.11H595.32V124.25H592.74L592.09 122.65H591.94C591.18 123.86 590.01 124.47 588.45 124.47M589.63 121.79C590.49 121.79 591.12 121.54 591.52 121.04C591.92 120.54 592.14 119.69 592.18 118.5V118.13C592.18 116.81 591.97 115.86 591.57 115.29C591.16 114.72 590.5 114.43 589.58 114.43C588.83 114.43 588.25 114.74 587.84 115.38C587.42 116.02 587.22 116.94 587.22 118.15C587.22 119.36 587.43 120.27 587.85 120.88C588.27 121.48 588.87 121.79 589.65 121.79" fill="#027DBD"/>
<path d="M608.28 124.26H604.92V108.15H614.15V110.95H608.28V115.11H613.74V117.89H608.28V124.26Z" fill="#027DBD"/>
<path d="M627.89 118.08C627.89 120.09 627.36 121.65 626.3 122.79C625.24 123.92 623.77 124.49 621.88 124.49C620.7 124.49 619.66 124.23 618.75 123.71C617.85 123.19 617.15 122.45 616.67 121.48C616.19 120.51 615.94 119.38 615.94 118.09C615.94 116.08 616.47 114.51 617.52 113.4C618.57 112.28 620.05 111.72 621.95 111.72C623.13 111.72 624.17 111.98 625.08 112.49C625.98 113.01 626.67 113.74 627.16 114.7C627.64 115.66 627.89 116.79 627.89 118.08ZM619.37 118.08C619.37 119.3 619.57 120.22 619.97 120.85C620.37 121.48 621.02 121.79 621.93 121.79C622.84 121.79 623.47 121.48 623.87 120.86C624.26 120.24 624.46 119.32 624.46 118.09C624.46 116.86 624.26 115.96 623.87 115.35C623.47 114.74 622.82 114.43 621.92 114.43C621.02 114.43 620.38 114.74 619.98 115.34C619.58 115.95 619.38 116.86 619.38 118.09" fill="#027DBD"/>
<path d="M641.62 118.08C641.62 120.09 641.09 121.65 640.03 122.79C638.97 123.92 637.5 124.49 635.61 124.49C634.43 124.49 633.39 124.23 632.48 123.71C631.58 123.19 630.88 122.45 630.4 121.48C629.92 120.51 629.67 119.38 629.67 118.09C629.67 116.08 630.2 114.51 631.25 113.4C632.3 112.28 633.78 111.72 635.68 111.72C636.86 111.72 637.9 111.98 638.81 112.49C639.71 113.01 640.4 113.74 640.89 114.7C641.37 115.66 641.62 116.79 641.62 118.08ZM633.1 118.08C633.1 119.3 633.3 120.22 633.7 120.85C634.1 121.48 634.75 121.79 635.66 121.79C636.57 121.79 637.2 121.48 637.6 120.86C637.99 120.24 638.19 119.32 638.19 118.09C638.19 116.86 637.99 115.96 637.6 115.35C637.2 114.74 636.55 114.43 635.65 114.43C634.75 114.43 634.11 114.74 633.71 115.34C633.31 115.95 633.11 116.86 633.11 118.09" fill="#027DBD"/>
<path d="M648.1 124.48C646.65 124.48 645.51 123.92 644.69 122.79C643.86 121.67 643.45 120.11 643.45 118.12C643.45 116.13 643.87 114.53 644.71 113.4C645.55 112.27 646.71 111.71 648.19 111.71C649.74 111.71 650.92 112.31 651.74 113.52H651.85C651.68 112.6 651.59 111.78 651.59 111.06V107.11H654.96V124.25H652.38L651.73 122.65H651.58C650.82 123.86 649.65 124.47 648.09 124.47M649.27 121.79C650.13 121.79 650.76 121.54 651.16 121.04C651.56 120.54 651.78 119.69 651.82 118.5V118.13C651.82 116.81 651.62 115.86 651.21 115.29C650.8 114.72 650.14 114.43 649.22 114.43C648.47 114.43 647.89 114.74 647.48 115.38C647.06 116.02 646.86 116.94 646.86 118.15C646.86 119.36 647.07 120.27 647.49 120.88C647.91 121.48 648.51 121.79 649.29 121.79" fill="#027DBD"/>
<path d="M542.09 137.23C542.09 138.96 541.55 140.29 540.46 141.21C539.38 142.13 537.84 142.59 535.84 142.59H534.38V148.32H530.96V132.21H536.1C538.06 132.21 539.54 132.63 540.56 133.47C541.58 134.31 542.09 135.57 542.09 137.23ZM534.38 139.79H535.5C536.55 139.79 537.34 139.58 537.86 139.17C538.38 138.75 538.64 138.15 538.64 137.36C538.64 136.57 538.42 135.97 537.98 135.59C537.54 135.21 536.86 135.02 535.92 135.02H534.37V139.8L534.38 139.79Z" fill="#027DBD"/>
<path d="M551.03 135.77C551.49 135.77 551.86 135.8 552.16 135.87L551.91 139.02C551.64 138.94 551.31 138.91 550.92 138.91C549.85 138.91 549.01 139.18 548.41 139.74C547.81 140.29 547.51 141.06 547.51 142.05V148.32H544.15V136H546.69L547.19 138.07H547.35C547.73 137.38 548.25 136.82 548.9 136.4C549.55 135.98 550.26 135.77 551.02 135.77" fill="#027DBD"/>
<path d="M565.03 142.13C565.03 144.14 564.5 145.7 563.44 146.84C562.38 147.97 560.91 148.54 559.02 148.54C557.84 148.54 556.8 148.28 555.89 147.76C554.99 147.24 554.29 146.5 553.81 145.53C553.33 144.56 553.08 143.43 553.08 142.14C553.08 140.13 553.61 138.56 554.66 137.45C555.71 136.33 557.19 135.77 559.09 135.77C560.27 135.77 561.31 136.03 562.22 136.54C563.12 137.05 563.81 137.79 564.3 138.75C564.78 139.71 565.03 140.84 565.03 142.13ZM556.51 142.13C556.51 143.35 556.71 144.27 557.11 144.9C557.51 145.53 558.16 145.84 559.07 145.84C559.98 145.84 560.61 145.53 561 144.91C561.39 144.29 561.59 143.37 561.59 142.14C561.59 140.91 561.39 140.01 561 139.4C560.6 138.79 559.95 138.48 559.05 138.48C558.15 138.48 557.51 138.79 557.11 139.39C556.71 140 556.51 140.91 556.51 142.14" fill="#027DBD"/>
<path d="M578.02 136V137.71L576.09 138.21C576.45 138.76 576.62 139.38 576.62 140.06C576.62 141.38 576.16 142.41 575.24 143.15C574.32 143.89 573.04 144.26 571.4 144.26L570.8 144.23L570.3 144.17C569.96 144.44 569.78 144.73 569.78 145.05C569.78 145.53 570.4 145.78 571.63 145.78H573.72C575.07 145.78 576.1 146.07 576.81 146.65C577.52 147.23 577.87 148.08 577.87 149.21C577.87 150.65 577.27 151.76 576.07 152.56C574.87 153.36 573.14 153.75 570.9 153.75C569.18 153.75 567.87 153.45 566.96 152.85C566.05 152.25 565.6 151.41 565.6 150.33C565.6 149.59 565.83 148.97 566.3 148.47C566.76 147.97 567.44 147.62 568.34 147.4C567.99 147.26 567.69 147.02 567.44 146.68C567.18 146.35 567.05 145.99 567.05 145.62C567.05 145.15 567.19 144.76 567.46 144.45C567.73 144.14 568.12 143.83 568.64 143.53C567.99 143.25 567.48 142.8 567.1 142.18C566.72 141.56 566.53 140.84 566.53 140C566.53 138.66 566.96 137.61 567.84 136.88C568.71 136.15 569.96 135.78 571.58 135.78C571.93 135.78 572.34 135.81 572.81 135.87C573.28 135.93 573.58 135.98 573.72 136.01H578.02V136ZM568.51 150.06C568.51 150.52 568.73 150.89 569.18 151.15C569.62 151.41 570.25 151.55 571.05 151.55C572.25 151.55 573.2 151.38 573.88 151.05C574.56 150.72 574.9 150.27 574.9 149.7C574.9 149.23 574.7 148.92 574.29 148.74C573.89 148.56 573.26 148.48 572.42 148.48H570.68C570.06 148.48 569.55 148.63 569.13 148.91C568.71 149.2 568.51 149.58 568.51 150.06ZM569.73 140.03C569.73 140.7 569.88 141.23 570.19 141.62C570.49 142.01 570.96 142.21 571.58 142.21C572.2 142.21 572.67 142.01 572.97 141.62C573.27 141.23 573.41 140.7 573.41 140.03C573.41 138.55 572.8 137.81 571.58 137.81C570.36 137.81 569.73 138.55 569.73 140.03Z" fill="#027DBD"/>
<path d="M586.41 135.77C586.87 135.77 587.24 135.8 587.54 135.87L587.29 139.02C587.02 138.94 586.69 138.91 586.3 138.91C585.23 138.91 584.39 139.18 583.79 139.74C583.19 140.29 582.89 141.06 582.89 142.05V148.32H579.53V136H582.07L582.57 138.07H582.73C583.11 137.38 583.63 136.82 584.28 136.4C584.93 135.98 585.64 135.77 586.4 135.77" fill="#027DBD"/>
<path d="M596.82 148.31L596.17 146.64H596.08C595.52 147.35 594.94 147.84 594.34 148.12C593.74 148.39 592.96 148.53 592 148.53C590.82 148.53 589.89 148.19 589.21 147.52C588.53 146.84 588.19 145.88 588.19 144.63C588.19 143.38 588.65 142.36 589.56 141.74C590.47 141.12 591.85 140.78 593.7 140.71L595.84 140.64V140.1C595.84 138.85 595.2 138.23 593.92 138.23C592.94 138.23 591.78 138.53 590.45 139.12L589.34 136.85C590.76 136.11 592.33 135.74 594.05 135.74C595.77 135.74 596.97 136.1 597.85 136.82C598.73 137.54 599.17 138.63 599.17 140.1V148.31H596.82ZM595.83 142.6L594.53 142.64C593.55 142.67 592.82 142.85 592.35 143.17C591.88 143.49 591.63 143.98 591.63 144.64C591.63 145.59 592.18 146.07 593.26 146.07C594.04 146.07 594.66 145.84 595.13 145.4C595.6 144.95 595.83 144.35 595.83 143.61V142.6Z" fill="#027DBD"/>
<path d="M613.01 148.31H609.65V141.12C609.65 140.23 609.5 139.57 609.2 139.12C608.9 138.68 608.44 138.46 607.8 138.46C606.94 138.46 606.32 138.78 605.93 139.4C605.54 140.03 605.35 141.07 605.35 142.52V148.31H601.99V135.99H604.56L605.01 137.57H605.19C605.52 137 606 136.56 606.63 136.24C607.25 135.92 607.97 135.76 608.78 135.76C610.62 135.76 611.87 136.36 612.53 137.57H612.83C613.16 137 613.65 136.55 614.29 136.24C614.94 135.92 615.66 135.77 616.47 135.77C617.86 135.77 618.92 136.13 619.63 136.84C620.35 137.55 620.71 138.7 620.71 140.28V148.31H617.34V141.12C617.34 140.23 617.19 139.57 616.89 139.12C616.59 138.68 616.12 138.46 615.49 138.46C614.67 138.46 614.05 138.75 613.64 139.34C613.23 139.93 613.03 140.86 613.03 142.14V148.32L613.01 148.31Z" fill="#027DBD"/>
<path d="M634.53 148.31H631.17V141.12C631.17 140.23 631.02 139.57 630.72 139.12C630.42 138.68 629.95 138.46 629.31 138.46C628.45 138.46 627.83 138.78 627.44 139.4C627.05 140.03 626.86 141.07 626.86 142.52V148.31H623.5V135.99H626.07L626.52 137.57H626.71C627.04 137 627.52 136.56 628.14 136.24C628.76 135.92 629.48 135.76 630.29 135.76C632.13 135.76 633.39 136.36 634.04 137.57H634.34C634.67 137 635.16 136.55 635.8 136.24C636.44 135.92 637.17 135.77 637.98 135.77C639.37 135.77 640.43 136.13 641.14 136.84C641.86 137.55 642.22 138.7 642.22 140.28V148.31H638.85V141.12C638.85 140.23 638.7 139.57 638.4 139.12C638.1 138.68 637.63 138.46 637 138.46C636.18 138.46 635.56 138.75 635.15 139.34C634.74 139.93 634.54 140.86 634.54 142.14V148.32L634.53 148.31Z" fill="#027DBD"/>
<path d="M650.68 148.53C648.7 148.53 647.15 147.98 646.03 146.89C644.91 145.79 644.36 144.24 644.36 142.24C644.36 140.24 644.88 138.58 645.91 137.45C646.94 136.32 648.37 135.76 650.19 135.76C652.01 135.76 653.28 136.26 654.25 137.25C655.22 138.24 655.7 139.61 655.7 141.36V142.99H647.76C647.8 143.94 648.08 144.69 648.61 145.22C649.14 145.76 649.88 146.02 650.83 146.02C651.57 146.02 652.27 145.94 652.93 145.79C653.59 145.63 654.28 145.39 655 145.05V147.65C654.41 147.94 653.79 148.16 653.11 148.3C652.44 148.44 651.63 148.51 650.67 148.51M650.2 138.13C649.49 138.13 648.93 138.36 648.53 138.81C648.13 139.26 647.89 139.91 647.84 140.74H652.56C652.55 139.91 652.33 139.27 651.91 138.81C651.49 138.36 650.93 138.13 650.21 138.13" fill="#027DBD"/>
<path d="M541.24 82.7302V91.2602C541.24 92.7602 540.79 93.9402 539.88 94.8002C538.97 95.6602 537.72 96.0902 536.14 96.0902C534.56 96.0902 533.32 95.6602 532.46 94.7902C531.59 93.9302 531.16 92.7402 531.16 91.2202V82.7302H532.69V91.3302C532.69 92.4302 532.99 93.2702 533.59 93.8602C534.19 94.4502 535.07 94.7402 536.24 94.7402C537.41 94.7402 538.21 94.4402 538.81 93.8502C539.41 93.2602 539.71 92.4102 539.71 91.3002V82.7202H541.24V82.7302Z" fill="#027DBD"/>
<path d="M551.14 95.9101V89.5201C551.14 88.7201 550.95 88.1101 550.59 87.7201C550.22 87.3201 549.65 87.1201 548.87 87.1201C547.84 87.1201 547.08 87.4001 546.6 87.9601C546.12 88.5201 545.88 89.4401 545.88 90.7201V95.9001H544.38V86.0201H545.6L545.84 87.3701H545.91C546.21 86.8901 546.65 86.5101 547.2 86.2401C547.75 85.9701 548.37 85.8401 549.05 85.8401C550.24 85.8401 551.14 86.1301 551.74 86.7001C552.34 87.2701 552.64 88.1901 552.64 89.4501V95.9001H551.14V95.9101Z" fill="#027DBD"/>
<path d="M555.44 83.3501C555.44 83.0001 555.52 82.7601 555.69 82.6001C555.86 82.4401 556.07 82.3601 556.32 82.3601C556.57 82.3601 556.77 82.4401 556.94 82.6101C557.12 82.7701 557.2 83.0201 557.2 83.3601C557.2 83.7001 557.11 83.9501 556.94 84.1101C556.77 84.2801 556.56 84.3601 556.32 84.3601C556.08 84.3601 555.86 84.2801 555.69 84.1101C555.52 83.9501 555.44 83.7001 555.44 83.3601M557.06 95.9101H555.56V86.0301H557.06V95.9101Z" fill="#027DBD"/>
<path d="M563.49 94.8502C563.75 94.8502 564.01 94.8302 564.26 94.7902C564.51 94.7502 564.7 94.7102 564.85 94.6702V95.8102C564.69 95.8902 564.45 95.9502 564.13 96.0102C563.82 96.0602 563.53 96.0802 563.28 96.0802C561.37 96.0802 560.41 95.0802 560.41 93.0602V87.1802H558.99V86.4602L560.41 85.8402L561.04 83.7302H561.9V86.0202H564.77V87.1802H561.9V92.9902C561.9 93.5902 562.04 94.0402 562.32 94.3602C562.6 94.6802 562.99 94.8402 563.48 94.8402" fill="#027DBD"/>
<path d="M570.81 96.0901C569.35 96.0901 568.2 95.6401 567.35 94.7501C566.51 93.8601 566.08 92.6301 566.08 91.0401C566.08 89.4501 566.47 88.1801 567.26 87.2501C568.04 86.3101 569.09 85.8401 570.42 85.8401C571.66 85.8401 572.64 86.2501 573.36 87.0601C574.08 87.8701 574.44 88.9501 574.44 90.2801V91.2301H567.64C567.67 92.3901 567.96 93.2701 568.52 93.8701C569.08 94.4701 569.86 94.7701 570.87 94.7701C571.94 94.7701 572.98 94.5501 574.02 94.1001V95.4301C573.49 95.6601 572.99 95.8201 572.52 95.9201C572.05 96.0201 571.48 96.0701 570.81 96.0701M570.4 87.0801C569.61 87.0801 568.97 87.3401 568.5 87.8501C568.03 88.3701 567.75 89.0801 567.67 89.9901H572.84C572.84 89.0501 572.63 88.3301 572.21 87.8201C571.79 87.3201 571.19 87.0701 570.41 87.0701" fill="#027DBD"/>
<path d="M583.72 94.5801H583.64C582.95 95.5801 581.92 96.0901 580.54 96.0901C579.25 96.0901 578.24 95.6501 577.52 94.7601C576.8 93.8801 576.45 92.6201 576.45 90.9901C576.45 89.3601 576.81 88.1001 577.53 87.1901C578.25 86.2901 579.25 85.8401 580.54 85.8401C581.83 85.8401 582.91 86.3301 583.62 87.3001H583.74L583.68 86.5901L583.64 85.8901V81.8701H585.14V95.8901H583.92L583.72 94.5601V94.5801ZM580.73 94.8301C581.75 94.8301 582.49 94.5501 582.95 94.0001C583.41 93.4501 583.64 92.5501 583.64 91.3101V90.9901C583.64 89.5901 583.41 88.5901 582.94 87.9901C582.47 87.3901 581.73 87.0901 580.71 87.0901C579.83 87.0901 579.16 87.4301 578.7 88.1101C578.23 88.7901 578 89.7601 578 91.0001C578 92.2401 578.23 93.2101 578.69 93.8601C579.15 94.5001 579.83 94.8201 580.73 94.8201" fill="#027DBD"/>
<path d="M603.04 95.9102H601.29L594.09 84.8502H594.02C594.12 86.1502 594.17 87.3402 594.17 88.4202V95.9102H592.75V82.7302H594.48L601.66 93.7402H601.73C601.72 93.5802 601.69 93.0602 601.65 92.1802C601.61 91.3002 601.59 90.6702 601.61 90.2902V82.7302H603.04V95.9102Z" fill="#027DBD"/>
<path d="M612.33 95.9101L612.03 94.5001H611.96C611.47 95.1201 610.98 95.5401 610.49 95.7601C610 95.9801 609.39 96.0901 608.66 96.0901C607.68 96.0901 606.91 95.8401 606.36 95.3401C605.8 94.8301 605.53 94.1201 605.53 93.1801C605.53 91.1901 607.12 90.1401 610.31 90.0401L611.99 89.9901V89.3801C611.99 88.6001 611.82 88.0301 611.49 87.6601C611.15 87.2901 610.62 87.1101 609.89 87.1101C609.07 87.1101 608.13 87.3601 607.1 87.8701L606.64 86.7201C607.13 86.4601 607.66 86.2501 608.24 86.1001C608.82 85.9501 609.4 85.8701 609.98 85.8701C611.16 85.8701 612.03 86.1301 612.6 86.6501C613.17 87.1701 613.45 88.0101 613.45 89.1701V95.9101H612.34H612.33ZM608.95 94.8601C609.88 94.8601 610.61 94.6101 611.14 94.0901C611.67 93.5801 611.94 92.8601 611.94 91.9401V91.0501L610.44 91.1101C609.25 91.1501 608.39 91.3401 607.87 91.6701C607.35 92.0001 607.08 92.5101 607.08 93.2001C607.08 93.7401 607.24 94.1501 607.57 94.4301C607.9 94.7101 608.35 94.8501 608.95 94.8501" fill="#027DBD"/>
<path d="M619.68 94.8502C619.94 94.8502 620.2 94.8302 620.45 94.7902C620.7 94.7502 620.89 94.7102 621.04 94.6702V95.8102C620.88 95.8902 620.64 95.9502 620.32 96.0102C620.01 96.0602 619.72 96.0802 619.47 96.0802C617.56 96.0802 616.6 95.0802 616.6 93.0602V87.1802H615.18V86.4602L616.6 85.8402L617.23 83.7302H618.09V86.0202H620.96V87.1802H618.09V92.9902C618.09 93.5902 618.23 94.0402 618.51 94.3602C618.79 94.6802 619.18 94.8402 619.67 94.8402" fill="#027DBD"/>
<path d="M622.92 83.3501C622.92 83.0001 623 82.7601 623.17 82.6001C623.34 82.4401 623.55 82.3601 623.8 82.3601C624.04 82.3601 624.25 82.4401 624.42 82.6101C624.59 82.7701 624.68 83.0201 624.68 83.3601C624.68 83.7001 624.59 83.9501 624.42 84.1101C624.25 84.2801 624.04 84.3601 623.8 84.3601C623.54 84.3601 623.34 84.2801 623.17 84.1101C623 83.9501 622.92 83.7001 622.92 83.3601M624.54 95.9101H623.04V86.0301H624.54V95.9101Z" fill="#027DBD"/>
<path d="M636.08 90.9601C636.08 92.5701 635.67 93.8301 634.87 94.7301C634.06 95.6301 632.94 96.0901 631.51 96.0901C630.63 96.0901 629.84 95.8801 629.16 95.4701C628.47 95.0501 627.94 94.4601 627.57 93.6801C627.2 92.9101 627.01 92.0001 627.01 90.9601C627.01 89.3501 627.41 88.0901 628.21 87.2001C629.02 86.3001 630.14 85.8501 631.56 85.8501C632.98 85.8501 634.04 86.3101 634.86 87.2301C635.67 88.1501 636.08 89.3901 636.08 90.9601ZM628.56 90.9601C628.56 92.2201 628.81 93.1801 629.32 93.8501C629.82 94.5101 630.57 94.8401 631.54 94.8401C632.51 94.8401 633.26 94.5101 633.77 93.8501C634.28 93.1901 634.53 92.2301 634.53 90.9601C634.53 89.6901 634.28 88.7501 633.77 88.1001C633.26 87.4501 632.51 87.1201 631.52 87.1201C630.53 87.1201 629.8 87.4401 629.31 88.0901C628.81 88.7301 628.56 89.6901 628.56 90.9701" fill="#027DBD"/>
<path d="M645.37 95.9101V89.5201C645.37 88.7201 645.18 88.1101 644.82 87.7201C644.45 87.3201 643.88 87.1201 643.1 87.1201C642.07 87.1201 641.31 87.4001 640.83 87.9601C640.35 88.5201 640.11 89.4401 640.11 90.7201V95.9001H638.61V86.0201H639.83L640.07 87.3701H640.14C640.44 86.8901 640.88 86.5101 641.43 86.2401C641.98 85.9701 642.6 85.8401 643.28 85.8401C644.47 85.8401 645.37 86.1301 645.97 86.7001C646.57 87.2701 646.87 88.1901 646.87 89.4501V95.9001H645.37V95.9101Z" fill="#027DBD"/>
<path d="M656.16 93.2101C656.16 94.1301 655.81 94.8401 655.13 95.3401C654.44 95.8401 653.48 96.0901 652.25 96.0901C650.94 96.0901 649.92 95.8801 649.19 95.4701V94.0801C649.66 94.3201 650.17 94.5101 650.72 94.6501C651.27 94.7901 651.79 94.8601 652.29 94.8601C653.07 94.8601 653.67 94.7301 654.09 94.4901C654.51 94.2401 654.73 93.8601 654.73 93.3501C654.73 92.9601 654.56 92.6301 654.23 92.3601C653.9 92.0901 653.25 91.7601 652.28 91.3901C651.36 91.0501 650.71 90.7501 650.32 90.4901C649.93 90.2301 649.64 89.9501 649.45 89.6201C649.26 89.3001 649.16 88.9101 649.16 88.4601C649.16 87.6601 649.49 87.0201 650.14 86.5501C650.79 86.0901 651.69 85.8501 652.83 85.8501C653.89 85.8501 654.93 86.0701 655.95 86.5001L655.42 87.7201C654.43 87.3101 653.53 87.1101 652.73 87.1101C652.02 87.1101 651.49 87.2201 651.13 87.4401C650.77 87.6601 650.59 87.9701 650.59 88.3601C650.59 88.6201 650.66 88.8501 650.79 89.0301C650.93 89.2201 651.14 89.4001 651.45 89.5701C651.75 89.7401 652.33 89.9801 653.18 90.3001C654.35 90.7301 655.14 91.1501 655.55 91.5901C655.96 92.0201 656.17 92.5701 656.17 93.2201" fill="#027DBD"/>
</svg>
